<svg height="511pt" viewBox="0 1 511 511.99895" width="511pt" xmlns="http://www.w3.org/2000/svg"><path d="m478.140625 255.097656c0 2.613282-.042969 5.214844-.136719 7.808594-1.957031 56.671875-25.101562 107.964844-61.765625 146.199219-3.589843 3.757812-7.328125 7.390625-11.191406 10.898437-29.464844 26.71875-66.148437 45.648438-106.757813 53.539063-3.621093.710937-7.265624 1.324219-10.953124 1.84375-10.371094 1.480469-20.957032 2.25-31.734376 2.25-10.796874 0-21.417968-.769531-31.808593-2.257813-44.941407-6.425781-85.546875-26.292968-117.636719-55.382812-3.855469-3.5-7.589844-7.132813-11.195312-10.890625-36.660157-38.234375-59.804688-89.527344-61.753907-146.199219-.105469-2.59375-.144531-5.195312-.144531-7.808594 0-2.613281.039062-5.21875.144531-7.808594 1.949219-56.675781 25.082031-107.953124 61.746094-146.1875 3.601563-3.757812 7.339844-7.402343 11.203125-10.902343 32.089844-29.101563 72.707031-48.957031 117.65625-55.390625 10.382812-1.480469 20.992188-2.25 31.789062-2.25 10.753907 0 21.34375.757812 31.703126 2.25 3.699218.519531 7.351562 1.132812 10.984374 1.839844 40.621094 7.894531 77.292969 26.824218 106.769532 53.550781 3.863281 3.507812 7.597656 7.144531 11.191406 10.902343 36.660156 38.234376 59.796875 89.511719 61.753906 146.1875.09375 2.589844.136719 5.195313.136719 7.808594zm0 0" fill="#1f81a3"/><path d="m478.136719 255.101562c0 108.308594-77.363281 198.539063-179.847657 218.449219-102.488281-19.910156-179.851562-110.140625-179.851562-218.449219 0-108.308593 77.363281-198.539062 179.851562-218.449218 102.484376 19.910156 179.847657 110.140625 179.847657 218.449218zm0 0" fill="#2c92bf"/><path d="m478.003906 262.90625c.09375-2.59375.136719-5.195312.136719-7.808594 0-2.613281-.042969-5.21875-.136719-7.808594h-116.167968c-.542969-35.402343-4.777344-69.980468-12.253907-100.882812 24.394531-10.902344 46.925781-26.117188 66.605469-45.242188l.0625-.0625c-3.59375-3.757812-7.328125-7.394531-11.191406-10.902343-17.660156 17.117187-37.777344 30.863281-59.539063 40.910156-2.101562-7.300781-4.402343-14.335937-6.890625-21.085937-13.171875-35.734376-31.144531-61.941407-51.324218-75.214844-10.359376-1.492188-20.949219-2.25-31.703126-2.25-10.796874 0-21.40625.769531-31.789062 2.25-17.074219 11.191406-32.484375 31.496094-45 59.773437-4.988281 11.265625-9.394531 23.511719-13.164062 36.515625-21.738282-10.035156-41.855469-23.78125-59.492188-40.898437-3.863281 3.5-7.601562 7.144531-11.203125 10.902343l.0625.0625c19.65625 19.117188 42.179687 34.316407 66.554687 45.230469-7.476562 30.769531-11.683593 65.128907-12.214843 100.894531h-116.148438c-.105469 2.589844-.144531 5.195313-.144531 7.808594 0 2.613282.039062 5.214844.144531 7.808594h116.148438c.53125 35.777344 4.738281 70.136719 12.214843 100.90625-24.375 10.910156-46.898437 26.113281-66.554687 45.238281l-.054687.054688c3.605468 3.757812 7.339843 7.390625 11.195312 10.890625 17.636719-17.097656 37.753906-30.851563 59.492188-40.890625 3.769531 13.003906 8.175781 25.25 13.164062 36.515625 12.515625 28.269531 27.914062 48.5625 44.980469 59.757812 10.390625 1.488282 21.011719 2.257813 31.808593 2.257813 10.777344 0 21.363282-.769531 31.734376-2.25 20.167968-13.285157 38.128906-39.480469 51.292968-75.207031 2.488282-6.746094 4.789063-13.785157 6.890625-21.082032 21.753907 10.035156 41.867188 23.789063 59.527344 40.90625 3.863281-3.507812 7.601563-7.140625 11.191406-10.898437l-.050781-.054688c-19.679688-19.136719-42.210938-34.347656-66.605469-45.25 7.476563-30.902343 11.710938-65.484375 12.253907-100.894531zm-284.917968-162.003906c17.035156-38.472656 39.816406-60.535156 62.515624-60.535156 5.269532 0 10.566407 1.15625 15.753907 3.4375 20.167969 8.847656 38.855469 34.285156 52.621093 71.625 2.550782 6.921874 4.90625 14.191406 7.039063 21.730468-23.824219 8.921875-49.289063 13.585938-75.414063 13.585938-26.144531 0-51.625-4.664063-75.457031-13.597656 3.695313-12.953126 8.015625-25.105469 12.941407-36.246094zm130.890624 293.875c-13.765624 37.335937-32.453124 62.773437-52.621093 71.625-5.1875 2.269531-10.484375 3.425781-15.753907 3.425781-22.699218 0-45.480468-22.0625-62.515624-60.527344-4.925782-11.140625-9.246094-23.292969-12.941407-36.242187 23.832031-8.933594 49.3125-13.609375 75.457031-13.609375 26.125 0 51.589844 4.675781 75.414063 13.597656-2.132813 7.539063-4.488281 14.804687-7.039063 21.730469zm10.976563-36.921875c-25.113281-9.203125-51.894531-14.027344-79.351563-14.027344-27.488281 0-54.289062 4.832031-79.414062 14.046875-6.839844-28.976562-10.695312-61.285156-11.214844-94.96875h181.246094c-.519531 33.339844-4.414062 65.835938-11.265625 94.949219zm-169.980469-110.566407c.519532-33.675781 4.375-65.992187 11.214844-94.960937 25.125 9.214844 51.925781 14.035156 79.414062 14.035156 27.457032 0 54.238282-4.808593 79.351563-14.011719 6.851563 29.109376 10.746094 61.605469 11.265625 94.9375zm0 0" fill="#15738c"/><path d="m510.703125 76.339844c0 42.160156-34.179687 76.339844-76.339844 76.339844-42.160156 0-76.339843-34.179688-76.339843-76.339844s34.179687-76.339844 76.339843-76.339844c42.160157 0 76.339844 34.179688 76.339844 76.339844zm0 0" fill="#32cc77"/><path d="m267.257812 311.179688h-232.128906c-19.125 0-34.628906 15.503906-34.628906 34.628906v131.5625c0 19.125 15.503906 34.628906 34.628906 34.628906h232.128906c19.125 0 34.628907-15.503906 34.628907-34.628906v-131.5625c0-19.125-15.503907-34.628906-34.628907-34.628906zm0 0" fill="#ff491f"/><g fill="#2d303b"><path d="m195.449219 356.378906h-194.949219v42h301.386719v-42zm0 0"/><path d="m174.96875 443.171875h-47.550781c-4.3125 0-7.808594-3.496094-7.808594-7.808594s3.496094-7.808593 7.808594-7.808593h47.550781c4.3125 0 7.808594 3.496093 7.808594 7.808593s-3.496094 7.808594-7.808594 7.808594zm0 0"/><path d="m250.710938 443.171875h-47.550782c-4.3125 0-7.808594-3.496094-7.808594-7.808594s3.496094-7.808593 7.808594-7.808593h47.550782c4.316406 0 7.8125 3.496093 7.8125 7.808593s-3.5 7.808594-7.8125 7.808594zm0 0"/><path d="m99.226562 443.171875h-47.550781c-4.316406 0-7.8125-3.496094-7.8125-7.808594s3.496094-7.808593 7.8125-7.808593h47.550781c4.3125 0 7.808594 3.496093 7.808594 7.808593s-3.496094 7.808594-7.808594 7.808594zm0 0"/></g><path d="m428.289062 123.265625c-2.828124 0-5.445312-1.535156-6.824218-4.019531l-20.824219-37.480469c-2.09375-3.773437-.738281-8.527344 3.035156-10.621094 3.773438-2.09375 8.523438-.734375 10.617188 3.035157l13.535156 24.363281 29.882813-61.46875c1.882812-3.878907 6.554687-5.496094 10.4375-3.609375 3.878906 1.886718 5.492187 6.558594 3.609374 10.4375l-36.445312 74.96875c-1.273438 2.617187-3.898438 4.3125-6.808594 4.390625-.070312 0-.140625.003906-.214844.003906zm0 0" fill="#e6e6e6"/></svg>